<svg width="100" height="100" viewBox="0 0 100 100" fill="none" xmlns="http://www.w3.org/2000/svg">
<circle cx="50" cy="50" r="48" stroke="#171717" stroke-width="4"/>
<path d="M38.0053 18H44.88V20.8747H40.88V23.7493H44.88V26.624H38.0053V18Z" fill="#171717"/>
<path d="M46.2533 18H53.1307V20.5013H49.1307V21H53.1307V26.7493H46.2533V24.1253H50.2533V23.624H46.2533V18Z" fill="#171717"/>
<path d="M54.5067 18H61.3787V20.5013H57.3787V21H61.3787V26.7493H54.5067V24.1253H58.5067V23.624H54.5067V18Z" fill="#171717"/>
<path fill-rule="evenodd" clip-rule="evenodd" d="M49.976 81.9999L31.4587 76.8586L26 30.5786H74L68.544 76.8533L49.976 81.9999ZM36.792 51.5279L37.3013 57.2026H56.9733L56.3147 64.5626L49.984 66.2746H49.9787L43.6587 64.5679L43.2533 60.0426H37.5547L38.3493 68.9546L49.976 72.1813L61.6213 68.9546L63.04 53.0506L63.1787 51.5279L64.2027 40.0373H35.7707L36.288 45.7146H57.984L57.4667 51.5279H36.792V51.5279Z" fill="#171717"/>
</svg>
