<svg width="100" height="100" viewBox="0 0 100 100" fill="none" xmlns="http://www.w3.org/2000/svg">
<circle cx="50" cy="50" r="48" stroke="#171717" stroke-width="4"/>
<path d="M58.8853 41.1147C61.1954 41.0454 63.3876 40.079 64.997 38.4205C66.6065 36.762 67.5067 34.5418 67.5067 32.2307C67.5067 29.9196 66.6065 27.6994 64.997 26.0409C63.3876 24.3824 61.1954 23.416 58.8853 23.3467H41.1147C38.8046 23.416 36.6124 24.3824 35.003 26.0409C33.3935 27.6994 32.4933 29.9196 32.4933 32.2307C32.4933 34.5418 33.3935 36.762 35.003 38.4205C36.6124 40.079 38.8046 41.0454 41.1147 41.1147C38.7844 41.155 36.5633 42.1091 34.9297 43.7712C33.296 45.4334 32.3806 47.6708 32.3806 50.0013C32.3806 52.3319 33.296 54.5693 34.9297 56.2314C36.5633 57.8936 38.7844 58.8476 41.1147 58.888C38.7958 58.9448 36.5911 59.9059 34.9711 61.566C33.3512 63.2262 32.4444 65.4538 32.4444 67.7733C32.4444 70.0929 33.3512 72.3205 34.9711 73.9807C36.5911 75.6408 38.7958 76.6019 41.1147 76.6587C43.4712 76.6573 45.7308 75.7203 47.3969 74.0537C49.063 72.3871 49.9993 70.1272 50 67.7707V41.1147H58.8853Z" fill="#171717"/>
<path d="M58.8853 58.8853C63.7926 58.8853 67.7707 54.9072 67.7707 50C67.7707 45.0927 63.7926 41.1146 58.8853 41.1146C53.9781 41.1146 50 45.0927 50 50C50 54.9072 53.9781 58.8853 58.8853 58.8853Z" fill="#171717"/>
</svg>
