<svg width="100" height="100" viewBox="0 0 100 100" fill="none" xmlns="http://www.w3.org/2000/svg">
<circle cx="50" cy="50" r="48" stroke="#171717" stroke-width="4"/>
<path d="M31.5467 18H34.432V20.8507H37.072V18H39.9573V26.6293H37.072V23.7413H34.432V26.6293H31.5493V18H31.5467Z" fill="#171717"/>
<path d="M43.7493 20.8613H41.2107V18H49.176V20.8613H46.6347V26.6293H43.7493V20.8613Z" fill="#171717"/>
<path d="M50.44 18H53.448L55.2987 21.032L57.1467 18H60.1547V26.6293H57.2827V22.352L55.2987 25.4213H55.248L53.2613 22.3547V26.6293H50.44V18Z" fill="#171717"/>
<path d="M61.5893 18H64.4773V23.7787H68.5307V26.632H61.5893V18Z" fill="#171717"/>
<path fill-rule="evenodd" clip-rule="evenodd" d="M31.456 76.8586L26 30.5786H74L68.5413 76.8533L49.9733 81.9999L31.456 76.8586ZM42.488 51.5253L41.9707 45.7119H63.6907L64.1973 40.0373H35.7707L37.3013 57.2026H56.9733L56.3147 64.5626L49.984 66.2746H49.9787L43.6587 64.5679L43.2533 60.0426H37.552L38.3467 68.9546L49.9733 72.1813L61.6187 68.9546L63.0373 53.0506L63.176 51.5279H42.488V51.5253Z" fill="#171717"/>
</svg>
