<svg width="100" height="100" viewBox="0 0 100 100" fill="none" xmlns="http://www.w3.org/2000/svg">
<circle cx="50" cy="50" r="48" stroke="#171717" stroke-width="4"/>
<path fill-rule="evenodd" clip-rule="evenodd" d="M18 18H82V82H18V18ZM66.9253 71.6533C63.9573 71.6533 62.28 70.1067 60.992 68L56.104 70.84C57.8693 74.328 61.4773 76.9893 67.064 76.9893C72.776 76.9893 77.0293 74.024 77.0293 68.608C77.0293 63.5867 74.144 61.3547 69.0347 59.16L67.5307 58.5173C64.9493 57.3973 63.832 56.6693 63.832 54.864C63.832 53.4053 64.952 52.288 66.712 52.288C68.4373 52.288 69.5493 53.016 70.5813 54.864L75.264 51.8587C73.2827 48.3733 70.536 47.0427 66.712 47.0427C61.3413 47.0427 57.904 50.4773 57.904 54.9893C57.904 59.8827 60.784 62.2 65.1253 64.048L66.6293 64.6933C69.3733 65.8933 71.008 66.624 71.008 68.6853C71.008 70.408 69.416 71.6533 66.9253 71.6533ZM43.6187 71.6133C41.552 71.6133 40.6907 70.2 39.7467 68.52L34.8507 71.4853C36.2693 74.488 39.0587 76.9787 43.872 76.9787C49.2027 76.9787 52.8533 74.144 52.8533 67.9173V47.384H46.84V67.8373C46.84 70.8427 45.592 71.6133 43.616 71.6133H43.6187Z" fill="#171717"/>
</svg>
