<svg width="100" height="100" viewBox="0 0 100 100" fill="none" xmlns="http://www.w3.org/2000/svg">
<circle cx="50" cy="50" r="48" stroke="#171717" stroke-width="4"/>
<path fill-rule="evenodd" clip-rule="evenodd" d="M82 82H18V18H82V82ZM68.8013 45.1268V40.163C67.9837 39.799 63.3024 38.4599 59.604 39.8711C54.2765 41.9039 54.4679 48.0276 56.4895 50.431C59.1089 53.545 65.6247 54.706 64.5585 57.7625C64.0064 59.3452 61.4287 59.6208 59.1562 59.0894C57.04 58.5946 55.2 57.3411 55.2 57.3411V62.5967C55.2 62.5967 57.0187 63.6108 59.251 63.852C62.1126 64.1611 65.6996 63.5774 67.4966 61.9801C70.6954 59.1367 71.1866 52.838 65.1247 49.9131C60.0804 47.4794 60.1634 46.7847 60.1987 45.5364C60.2463 43.8644 63.7568 42.8351 68.8013 45.1268ZM41.5987 31.1969C45.7959 31.3429 51.964 33.2773 51.964 41.5256C51.964 49.774 44.4172 52.4806 37.5311 51.8909V63.57H32.4012V31.3062C32.4012 31.3062 37.4014 31.0509 41.5986 31.1969H41.5987ZM42.9309 46.7812C45.1429 45.9741 46.5806 44.239 46.5806 41.5438C46.5806 38.6861 45.1175 36.751 42.8797 36.2044C40.4565 35.6122 37.5311 35.9613 37.5311 35.9613V47.2167C37.5311 47.2167 41.5805 47.274 42.9309 46.7812Z" fill="#171717"/>
</svg>
