<svg width="100" height="100" viewBox="0 0 100 100" fill="none" xmlns="http://www.w3.org/2000/svg">
<circle cx="50" cy="50" r="48" stroke="#171717" stroke-width="4"/>
<path d="M50.342 55.4C49.38 55.842 48.326 56.418 46.216 57.576C45.416 58.026 44.58 58.476 43.802 58.9C43.748 58.846 43.692 58.778 43.638 58.722C39.464 54.262 31.744 51.112 32.072 45.122C32.194 42.94 32.944 37.212 46.898 30.256C58.382 24.596 67.52 26.164 69.098 29.642C71.366 34.6 64.2 43.826 52.34 45.164C51.0274 45.4302 49.6717 45.3981 48.3732 45.0699C47.0747 44.7417 45.8665 44.1259 44.838 43.268C44.21 42.586 44.116 42.546 43.884 42.682C43.502 42.882 43.748 43.5 43.884 43.854C44.3364 44.6731 44.9484 45.3931 45.6839 45.9716C46.4194 46.5501 47.2634 46.9753 48.166 47.222C52.8332 48.2308 57.6994 47.7488 62.078 45.844C69.266 43.062 74.878 35.328 73.234 28.844C71.584 22.27 60.672 20.102 50.348 23.77C43.8826 25.9488 37.9091 29.3786 32.768 33.864C27.08 39.184 26.18 43.808 26.548 45.744C27.872 52.618 37.348 57.092 41.148 60.406C40.948 60.516 40.78 60.606 40.63 60.692C38.734 61.634 31.506 65.412 29.704 69.408C27.658 73.936 30.032 77.182 31.6 77.618C33.963 78.184 36.4437 77.9979 38.6958 77.0858C40.9479 76.1736 42.859 74.5808 44.162 72.53C45.2686 70.8293 45.948 68.8866 46.1427 66.867C46.3373 64.8474 46.0414 62.8107 45.28 60.93C45.7292 60.5717 46.2083 60.2525 46.712 59.976C47.68 59.404 48.602 58.84 49.42 58.404C52.2208 57.0921 55.2772 56.4166 58.37 56.426C64.862 57.19 66.144 61.24 65.898 62.946C65.7829 63.5513 65.5395 64.1249 65.1842 64.6282C64.8289 65.1315 64.3698 65.5529 63.838 65.864C63.388 66.15 63.238 66.246 63.278 66.45C63.332 66.75 63.55 66.736 63.932 66.682C64.9074 66.3737 65.7667 65.7776 66.3971 64.972C67.0274 64.1663 67.3994 63.1889 67.464 62.168C67.664 58.168 63.85 53.78 57.098 53.82C55.0762 53.8234 53.0747 54.2223 51.206 54.994C50.906 55.118 50.6147 55.2513 50.332 55.394L50.342 55.4ZM40.692 71.078C38.536 73.424 35.536 74.31 34.24 73.56C32.84 72.76 33.394 69.29 36.04 66.808C37.6071 65.396 39.3009 64.1313 41.1 63.03C41.414 62.83 41.878 62.566 42.436 62.23L42.586 62.148L42.914 61.948C43.3859 63.5302 43.4289 65.2094 43.0384 66.8136C42.648 68.4179 41.8382 69.8896 40.692 71.078V71.078Z" fill="#171717"/>
</svg>
