<svg width="100" height="100" viewBox="0 0 100 100" fill="none" xmlns="http://www.w3.org/2000/svg">
<circle cx="50" cy="50" r="48" stroke="#171717" stroke-width="4"/>
<path d="M65.472 40.8266C65.472 40.8266 60.2827 57.1013 59.8587 58.4453C58.5519 48.2454 57.2328 38.0472 55.9013 27.8506C47.0587 27.8506 42.3307 34.1439 39.832 40.7866L32.992 58.4853C32.952 57.2159 32.032 40.9786 32.032 40.9786C31.488 32.8399 24.032 27.8853 18 27.8853L25.304 72.1519C34.568 72.1119 39.5627 65.8559 42.1787 59.2133C42.1787 59.2133 47.752 44.8186 47.9813 44.1653C48.0213 44.7786 51.9813 72.1493 51.9813 72.1493C61.2827 72.1493 66.28 66.2773 68.968 59.8666L82 27.8879C72.8133 27.8879 67.9707 34.1439 65.472 40.8239V40.8266Z" fill="#171717"/>
</svg>
