<svg width="100" height="100" viewBox="0 0 100 100" fill="none" xmlns="http://www.w3.org/2000/svg">
<circle cx="50" cy="50" r="48" stroke="#171717" stroke-width="4"/>
<path d="M68.532 48.6119C68.532 45.2199 67.312 42.8719 66.268 41.0439L65.948 40.5239C64.68 38.4839 63.572 36.6919 63.572 34.6039C63.572 32.0839 65.484 29.7319 68.18 29.7319C68.26 29.7319 68.336 29.7399 68.412 29.7439L68.536 29.7559C63.4807 25.1124 56.8642 22.5395 50 22.5479C45.4507 22.5455 40.9722 23.6752 36.9683 25.835C32.9643 27.9947 29.5607 31.1168 27.064 34.9199C27.704 34.9399 28.316 34.9559 28.832 34.9559C31.7 34.9559 36.144 34.6079 36.144 34.6079C37.624 34.5199 37.8 36.6919 36.32 36.8679C36.32 36.8679 34.836 37.0439 33.18 37.1279L43.18 66.8639L49.18 48.8399L44.9 37.1239C43.424 37.0359 42.024 36.8639 42.024 36.8639C40.544 36.7759 40.72 34.5119 42.196 34.5999C42.196 34.5999 46.732 34.9479 49.428 34.9479C52.3 34.9479 56.748 34.5999 56.748 34.5999C58.228 34.5119 58.4 36.6879 56.92 36.8639C56.92 36.8639 55.432 37.0359 53.78 37.1239L63.7 66.6319L66.436 57.4839L66.652 56.7919C67.732 53.3519 68.528 50.8119 68.528 48.6079L68.532 48.6119ZM22.548 49.9999C22.5477 55.1549 23.9987 60.2058 26.7349 64.5746C29.4711 68.9435 33.382 72.4538 38.02 74.7039L24.92 38.8239C23.3513 42.3407 22.543 46.1491 22.548 49.9999Z" fill="#171717"/>
<path d="M42.244 76.3321L50.484 52.4001L58.92 75.5201C58.976 75.6521 59.04 75.7761 59.116 75.8961C53.6778 77.812 47.7739 77.9646 42.244 76.3321ZM74.084 36.8281C74.204 37.7041 74.272 38.6401 74.272 39.6521C74.272 42.4361 73.752 45.5681 72.184 49.4841L63.8 73.7241C69.9868 70.1296 74.5249 64.2605 76.4467 57.3682C78.3686 50.4758 77.5222 43.1054 74.088 36.8281H74.084Z" fill="#171717"/>
<path fill-rule="evenodd" clip-rule="evenodd" d="M18 50C18 32.356 32.356 18 50 18C67.64 18 82 32.356 82 50C82 67.644 67.64 82 50 82C32.356 82 18 67.644 18 50ZM19.468 50C19.468 66.836 33.164 80.532 50 80.532C66.832 80.532 80.528 66.836 80.528 50C80.528 33.16 66.832 19.468 50 19.468C33.16 19.468 19.468 33.16 19.468 50Z" fill="#171717"/>
</svg>
