<svg width="158" height="36" viewBox="0 0 158 36" fill="none" xmlns="http://www.w3.org/2000/svg">
<path d="M12.576 17.288C13.6 17.528 14.392 18.024 14.952 18.776C15.528 19.512 15.816 20.368 15.816 21.344C15.816 22.832 15.32 23.984 14.328 24.8C13.352 25.6 11.944 26 10.104 26H1.2V9.008H9.864C11.592 9.008 12.952 9.384 13.944 10.136C14.936 10.888 15.432 11.984 15.432 13.424C15.432 14.416 15.168 15.256 14.64 15.944C14.128 16.616 13.44 17.064 12.576 17.288ZM6.528 15.632H8.592C9.072 15.632 9.424 15.536 9.648 15.344C9.888 15.152 10.008 14.856 10.008 14.456C10.008 14.04 9.888 13.736 9.648 13.544C9.424 13.336 9.072 13.232 8.592 13.232H6.528V15.632ZM8.952 21.728C9.432 21.728 9.784 21.64 10.008 21.464C10.248 21.272 10.368 20.968 10.368 20.552C10.368 19.736 9.896 19.328 8.952 19.328H6.528V21.728H8.952ZM31.9343 12.464V26H26.6063V23.936C26.1903 24.576 25.6303 25.096 24.9263 25.496C24.2383 25.896 23.4143 26.096 22.4543 26.096C20.9023 26.096 19.6863 25.576 18.8063 24.536C17.9423 23.496 17.5103 22.088 17.5103 20.312V12.464H22.8143V19.64C22.8143 20.28 22.9823 20.792 23.3183 21.176C23.6703 21.544 24.1343 21.728 24.7103 21.728C25.3023 21.728 25.7663 21.544 26.1023 21.176C26.4383 20.792 26.6063 20.28 26.6063 19.64V12.464H31.9343ZM43.8206 12.368C45.3726 12.368 46.5806 12.888 47.4446 13.928C48.3246 14.968 48.7646 16.376 48.7646 18.152V26H43.4606V18.824C43.4606 18.184 43.2846 17.68 42.9326 17.312C42.5966 16.928 42.1406 16.736 41.5646 16.736C40.9726 16.736 40.5086 16.928 40.1726 17.312C39.8366 17.68 39.6686 18.184 39.6686 18.824V26H34.3406V12.464H39.6686V14.528C40.0846 13.888 40.6366 13.368 41.3246 12.968C42.0286 12.568 42.8606 12.368 43.8206 12.368ZM55.947 12.296C56.827 12.296 57.587 12.48 58.227 12.848C58.867 13.2 59.355 13.688 59.691 14.312V12.464H64.995V25.76C64.995 27.024 64.763 28.176 64.299 29.216C63.835 30.256 63.083 31.088 62.043 31.712C61.019 32.336 59.699 32.648 58.083 32.648C55.907 32.648 54.179 32.136 52.899 31.112C51.635 30.104 50.915 28.728 50.739 26.984H55.971C56.115 27.688 56.691 28.04 57.699 28.04C58.323 28.04 58.811 27.88 59.163 27.56C59.515 27.24 59.691 26.64 59.691 25.76V24.152C59.355 24.776 58.867 25.272 58.227 25.64C57.587 25.992 56.827 26.168 55.947 26.168C54.891 26.168 53.939 25.896 53.091 25.352C52.243 24.792 51.571 23.992 51.075 22.952C50.595 21.896 50.355 20.656 50.355 19.232C50.355 17.808 50.595 16.576 51.075 15.536C51.571 14.48 52.243 13.68 53.091 13.136C53.939 12.576 54.891 12.296 55.947 12.296ZM59.691 19.232C59.691 18.512 59.507 17.952 59.139 17.552C58.771 17.152 58.299 16.952 57.723 16.952C57.147 16.952 56.675 17.152 56.307 17.552C55.939 17.952 55.755 18.512 55.755 19.232C55.755 19.952 55.939 20.512 56.307 20.912C56.675 21.312 57.147 21.512 57.723 21.512C58.299 21.512 58.771 21.312 59.139 20.912C59.507 20.512 59.691 19.952 59.691 19.232Z" fill="#171717"/>
<path d="M82.6277 20.1898L77.2308 25.5867C76.3517 23.7961 76.656 21.568 78.1436 20.0804L80.331 17.893L82.6277 20.1898Z" fill="#171717"/>
<path d="M96.5894 14.9903L90.0145 8.41542C91.8552 7.31741 94.2777 7.56016 95.8611 9.14365C97.4446 10.7271 97.6874 13.1496 96.5894 14.9903Z" fill="#171717"/>
<path d="M79.4181 27.774L84.815 22.3771L87.1118 24.6738L84.9244 26.8612C83.4368 28.3488 81.2087 28.6531 79.4181 27.774Z" fill="#171717"/>
<path fill-rule="evenodd" clip-rule="evenodd" d="M70.7148 0.0745561C69.6969 -0.28114 68.7189 0.696926 69.0746 1.71477L74.6172 17.5752C74.7133 17.8503 74.7133 18.1497 74.6172 18.4248L69.0746 34.2852C68.7189 35.3031 69.6969 36.2811 70.7148 35.9254L86.5752 30.3828C86.8503 30.2867 87.1497 30.2867 87.4248 30.3828L103.285 35.9254C104.303 36.2811 105.281 35.3031 104.925 34.2852L99.3828 18.4248C99.2867 18.1497 99.2867 17.8503 99.3828 17.5752L104.925 1.71477C105.281 0.696929 104.303 -0.281141 103.285 0.0745553L87.4248 5.61719C87.1497 5.71329 86.8503 5.71329 86.5752 5.61719L70.7148 0.0745561ZM76.0657 18.0024L80.4403 13.6277L84.815 18.0024L90.1084 12.709L87.8117 10.4123L84.7057 13.5183L82.6277 11.4404L87.0024 7.06567C90.0209 4.04713 94.9206 4.04713 97.9391 7.06567C100.958 10.0842 100.958 14.9839 97.9391 18.0024L93.5644 22.3771L91.4865 20.2991L94.5925 17.1931L92.2958 14.8964L87.0024 20.1898L91.3771 24.5644L87.0024 28.9391C83.9839 31.9577 79.0842 31.9577 76.0657 28.9391C73.0471 25.9206 73.0471 21.0209 76.0657 18.0024Z" fill="#171717"/>
<path d="M119.096 23.432H113.432L112.592 26H107L113.216 9.008H119.36L125.552 26H119.936L119.096 23.432ZM117.8 19.424L116.264 14.696L114.728 19.424H117.8ZM126.043 19.232C126.043 17.808 126.283 16.576 126.763 15.536C127.259 14.48 127.931 13.68 128.779 13.136C129.627 12.576 130.579 12.296 131.635 12.296C132.515 12.296 133.267 12.48 133.891 12.848C134.531 13.2 135.019 13.688 135.355 14.312V8.24H140.683V26H135.355V24.152C135.019 24.776 134.531 25.272 133.891 25.64C133.267 25.992 132.515 26.168 131.635 26.168C130.579 26.168 129.627 25.896 128.779 25.352C127.931 24.792 127.259 23.992 126.763 22.952C126.283 21.896 126.043 20.656 126.043 19.232ZM135.379 19.232C135.379 18.512 135.195 17.952 134.827 17.552C134.459 17.152 133.987 16.952 133.411 16.952C132.835 16.952 132.363 17.152 131.995 17.552C131.627 17.952 131.443 18.512 131.443 19.232C131.443 19.952 131.627 20.512 131.995 20.912C132.363 21.312 132.835 21.512 133.411 21.512C133.987 21.512 134.459 21.312 134.827 20.912C135.195 20.512 135.379 19.952 135.379 19.232ZM145.763 11.384C144.835 11.384 144.091 11.136 143.531 10.64C142.971 10.144 142.691 9.52 142.691 8.768C142.691 8 142.971 7.368 143.531 6.872C144.091 6.36 144.835 6.104 145.763 6.104C146.675 6.104 147.411 6.36 147.971 6.872C148.531 7.368 148.811 8 148.811 8.768C148.811 9.52 148.531 10.144 147.971 10.64C147.411 11.136 146.675 11.384 145.763 11.384ZM148.403 12.464V26H143.075V12.464H148.403ZM153.449 26.192C152.521 26.192 151.777 25.944 151.217 25.448C150.657 24.952 150.377 24.328 150.377 23.576C150.377 22.808 150.657 22.176 151.217 21.68C151.777 21.168 152.521 20.912 153.449 20.912C154.361 20.912 155.097 21.168 155.657 21.68C156.217 22.176 156.497 22.808 156.497 23.576C156.497 24.328 156.217 24.952 155.657 25.448C155.097 25.944 154.361 26.192 153.449 26.192Z" fill="#171717"/>
</svg>
