<svg width="580" height="525" viewBox="0 0 580 525" fill="none" xmlns="http://www.w3.org/2000/svg">
<path fill-rule="evenodd" clip-rule="evenodd" d="M255.09 3.18447C315.171 14.3053 337.549 80.3356 389.366 109.691C447.138 142.42 543.917 127.089 572.095 182.776C599.67 237.271 549.279 300.206 510.405 348.895C479.056 388.159 420.719 396.42 377.986 425.894C333.209 456.778 311.655 524.296 255.09 524.994C198.659 525.69 167.823 466.132 129.703 428.956C99.6385 399.635 77.5116 367.636 57.3765 332.175C32.982 289.213 -2.56629 248.902 0.146542 200.79C3.28761 145.083 26.0602 87.728 73.2211 51.1738C122.164 13.2384 191.639 -8.55991 255.09 3.18447Z" fill="url(#paint0_linear_1817_5)"/>
<defs>
<linearGradient id="paint0_linear_1817_5" x1="0" y1="0" x2="522.405" y2="577.133" gradientUnits="userSpaceOnUse">
<stop stop-color="#79B4FC"/>
<stop offset="1" stop-color="#75D1F1"/>
</linearGradient>
</defs>
</svg>
